<?xml version="1.0" encoding="UTF-8" standalone="no"?>
<!-- Created with Inkscape (http://www.inkscape.org/) -->

<svg
   xmlns:dc="http://purl.org/dc/elements/1.1/"
   xmlns:cc="http://creativecommons.org/ns#"
   xmlns:rdf="http://www.w3.org/1999/02/22-rdf-syntax-ns#"
   xmlns:svg="http://www.w3.org/2000/svg"
   xmlns="http://www.w3.org/2000/svg"
   xmlns:sodipodi="http://sodipodi.sourceforge.net/DTD/sodipodi-0.dtd"
   xmlns:inkscape="http://www.inkscape.org/namespaces/inkscape"
   id="svg2"
   version="1.1"
   inkscape:version="0.48.2 r9819"
   width="640"
   height="640"
   xml:space="preserve"
   sodipodi:docname="Helveticons.pdf"><metadata
     id="metadata8"><rdf:RDF><cc:Work
         rdf:about=""><dc:format>image/svg+xml</dc:format><dc:type
           rdf:resource="http://purl.org/dc/dcmitype/StillImage" /><dc:title></dc:title></cc:Work></rdf:RDF></metadata><defs
     id="defs6"><clipPath
       clipPathUnits="userSpaceOnUse"
       id="clipPath18"><path
         d="M 0,0 512,0 512,512 0,512 0,0 z"
         id="path20" /></clipPath></defs><sodipodi:namedview
     pagecolor="#ffffff"
     bordercolor="#666666"
     borderopacity="1"
     objecttolerance="10"
     gridtolerance="10"
     guidetolerance="10"
     inkscape:pageopacity="0"
     inkscape:pageshadow="2"
     inkscape:window-width="640"
     inkscape:window-height="480"
     id="namedview4"
     showgrid="false"
     inkscape:zoom="0.36875"
     inkscape:cx="320"
     inkscape:cy="320"
     inkscape:window-x="0"
     inkscape:window-y="0"
     inkscape:window-maximized="0"
     inkscape:current-layer="g10" /><g
     id="g10"
     inkscape:groupmode="layer"
     inkscape:label="Helveticons"
     transform="matrix(1.25,0,0,-1.25,0,640)"><g
       id="g12" /><g
       id="g14"><g
         id="g16"
         clip-path="url(#clipPath18)"><path
           d="m 257.0469,442.8457 c -120.559,2.372 -219.795,-71.915 -221.646,-165.93 -0.643,-32.685 10.575,-63.443 30.542,-89.777 l -0.004,0 c 34.337,-44.117 -3.14,-119.956 -3.14,-119.956 l 110.649,47.655 c 23.838,-7.533 49.744,-11.921 76.888,-12.456 120.56,-2.376 219.795,71.915 221.648,165.929 1.851,94.017 -94.378,172.158 -214.937,174.535"
           style="fill:#000000;fill-opacity:1;fill-rule:evenodd;stroke:none"
           id="path22" /></g></g></g></svg>