<?xml version="1.0" encoding="UTF-8" standalone="no"?>
<!-- Created with Inkscape (http://www.inkscape.org/) -->

<svg
   xmlns:dc="http://purl.org/dc/elements/1.1/"
   xmlns:cc="http://creativecommons.org/ns#"
   xmlns:rdf="http://www.w3.org/1999/02/22-rdf-syntax-ns#"
   xmlns:svg="http://www.w3.org/2000/svg"
   xmlns="http://www.w3.org/2000/svg"
   xmlns:sodipodi="http://sodipodi.sourceforge.net/DTD/sodipodi-0.dtd"
   xmlns:inkscape="http://www.inkscape.org/namespaces/inkscape"
   id="svg3128"
   version="1.1"
   inkscape:version="0.48.2 r9819"
   width="640"
   height="640"
   xml:space="preserve"
   sodipodi:docname="malningarrulla.svg"><metadata
     id="metadata3134"><rdf:RDF><cc:Work
         rdf:about=""><dc:format>image/svg+xml</dc:format><dc:type
           rdf:resource="http://purl.org/dc/dcmitype/StillImage" /><dc:title></dc:title></cc:Work></rdf:RDF></metadata><defs
     id="defs3132"><clipPath
       clipPathUnits="userSpaceOnUse"
       id="clipPath3144"><path
         d="M 0,0 512,0 512,512 0,512 0,0 z"
         id="path3146" /></clipPath></defs><sodipodi:namedview
     pagecolor="#ffffff"
     bordercolor="#666666"
     borderopacity="1"
     objecttolerance="10"
     gridtolerance="10"
     guidetolerance="10"
     inkscape:pageopacity="0"
     inkscape:pageshadow="2"
     inkscape:window-width="640"
     inkscape:window-height="480"
     id="namedview3130"
     showgrid="false"
     inkscape:zoom="0.36875"
     inkscape:cx="320"
     inkscape:cy="320"
     inkscape:window-x="1266"
     inkscape:window-y="13"
     inkscape:window-maximized="0"
     inkscape:current-layer="g3136" /><g
     id="g3136"
     inkscape:groupmode="layer"
     inkscape:label="Helveticons"
     transform="matrix(1.25,0,0,-1.25,0,640)"><g
       id="g3138" /><g
       id="g3140"
       style="fill:#b3b3b3"
       inkscape:export-filename="/Users/bthj/Developer/Xcode/Mannanofn/Mannanofn/graphics/eraser_nametag@2x.png"
       inkscape:export-xdpi="9.9200001"
       inkscape:export-ydpi="9.9200001"><g
         id="g3142"
         clip-path="url(#clipPath3144)"
         style="fill:#b3b3b3"><path
           d="m 456.4795,270.4912 -180.448,180.438 c -11.052,11.042 -28.941,11.042 -39.961,0 l -5.788,-5.758 -29.334,29.359 -76.032,-76.001 100.754,-155.299 -10.922,-11.414 -17.627,17.631 -153.271,-153.291 58.502,-58.514 153.307,153.284 -19.23,19.212 28.124,29.431 -100.394,154.851 36.789,36.746 7.686,-7.667 -9.908,-9.891 c -11.054,-11.038 -11.054,-28.94 0,-39.978 l 180.416,-180.439 c 11.051,-11.046 28.971,-11.046 39.991,0 l 37.346,37.338 c 11.023,11.026 11.023,28.929 0,39.962"
           style="fill:#b3b3b3;fill-opacity:1;fill-rule:nonzero;stroke:none"
           id="path3148" /></g></g></g></svg>