<?xml version="1.0" encoding="UTF-8" standalone="no"?>
<!-- Created with Inkscape (http://www.inkscape.org/) -->

<svg
   xmlns:dc="http://purl.org/dc/elements/1.1/"
   xmlns:cc="http://creativecommons.org/ns#"
   xmlns:rdf="http://www.w3.org/1999/02/22-rdf-syntax-ns#"
   xmlns:svg="http://www.w3.org/2000/svg"
   xmlns="http://www.w3.org/2000/svg"
   xmlns:sodipodi="http://sodipodi.sourceforge.net/DTD/sodipodi-0.dtd"
   xmlns:inkscape="http://www.inkscape.org/namespaces/inkscape"
   id="svg2"
   version="1.1"
   inkscape:version="0.48.2 r9819"
   width="640"
   height="640"
   xml:space="preserve"
   sodipodi:docname="stafrofsrod.svg"><metadata
     id="metadata8"><rdf:RDF><cc:Work
         rdf:about=""><dc:format>image/svg+xml</dc:format><dc:type
           rdf:resource="http://purl.org/dc/dcmitype/StillImage" /><dc:title></dc:title></cc:Work></rdf:RDF></metadata><defs
     id="defs6"><clipPath
       clipPathUnits="userSpaceOnUse"
       id="clipPath18"><path
         d="M 0,0 512,0 512,512 0,512 0,0 z"
         id="path20" /></clipPath></defs><sodipodi:namedview
     pagecolor="#ffffff"
     bordercolor="#666666"
     borderopacity="1"
     objecttolerance="10"
     gridtolerance="10"
     guidetolerance="10"
     inkscape:pageopacity="0"
     inkscape:pageshadow="2"
     inkscape:window-width="606"
     inkscape:window-height="730"
     id="namedview4"
     showgrid="false"
     inkscape:zoom="0.52149125"
     inkscape:cx="289.97883"
     inkscape:cy="357.2948"
     inkscape:window-x="19"
     inkscape:window-y="108"
     inkscape:window-maximized="0"
     inkscape:current-layer="g10" /><g
     id="g10"
     inkscape:groupmode="layer"
     inkscape:label="Helveticons"
     transform="matrix(1.25,0,0,-1.25,0,640)"><rect
       style="fill:#cccccc;display:none"
       id="rect3001"
       width="406.61676"
       height="406.61676"
       x="51.234829"
       y="-454.30453"
       transform="scale(1,-1)"
       inkscape:export-filename="/Users/bthj/Developer/Xcode/Mannanofn/Mannanofn/graphics/alphabetical_tabbar.png"
       inkscape:export-xdpi="5.3099999"
       inkscape:export-ydpi="5.3099999" /><g
       id="g12" /><g
       id="g14"><g
         id="g16"
         clip-path="url(#clipPath18)"><path
           d="m 190.111,345.208 268.258,0 0,83.104 -268.258,0 0,-83.104 z"
           style="fill:#000000;fill-opacity:1;fill-rule:nonzero;stroke:none"
           id="path22" /><path
           d="m 190.111,214.209 268.259,0 0,83.098 -268.259,0 0,-83.098 z"
           style="fill:#000000;fill-opacity:1;fill-rule:nonzero;stroke:none"
           id="path24" /><path
           d="m 190.111,83.204 268.261,0 0,83.1 -268.261,0 0,-83.1 z"
           style="fill:#000000;fill-opacity:1;fill-rule:nonzero;stroke:none"
           id="path26" /><path
           d="m 138.7466,386.0527 c 0,-24.033 -19.48,-43.508 -43.509,-43.508 -24.028,0 -43.508,19.475 -43.508,43.508 0,24.029 19.48,43.504 43.508,43.504 24.029,0 43.509,-19.475 43.509,-43.504"
           style="fill:#000000;fill-opacity:1;fill-rule:nonzero;stroke:none"
           id="path28" /><path
           d="m 138.7466,260.9336 c 0,-24.028 -19.48,-43.508 -43.509,-43.508 -24.028,0 -43.508,19.48 -43.508,43.508 0,24.027 19.48,43.508 43.508,43.508 24.029,0 43.509,-19.481 43.509,-43.508"
           style="fill:#000000;fill-opacity:1;fill-rule:nonzero;stroke:none"
           id="path30" /><path
           d="m 138.7466,127.0361 c 0,-24.028 -19.48,-43.509 -43.509,-43.509 -24.028,0 -43.508,19.481 -43.508,43.509 0,24.028 19.48,43.507 43.508,43.507 24.029,0 43.509,-19.479 43.509,-43.507"
           style="fill:#000000;fill-opacity:1;fill-rule:nonzero;stroke:none"
           id="path32" /></g></g></g></svg>