<?xml version="1.0" encoding="UTF-8" standalone="no"?>
<!-- Created with Inkscape (http://www.inkscape.org/) -->

<svg
   xmlns:dc="http://purl.org/dc/elements/1.1/"
   xmlns:cc="http://creativecommons.org/ns#"
   xmlns:rdf="http://www.w3.org/1999/02/22-rdf-syntax-ns#"
   xmlns:svg="http://www.w3.org/2000/svg"
   xmlns="http://www.w3.org/2000/svg"
   xmlns:xlink="http://www.w3.org/1999/xlink"
   xmlns:sodipodi="http://sodipodi.sourceforge.net/DTD/sodipodi-0.dtd"
   xmlns:inkscape="http://www.inkscape.org/namespaces/inkscape"
   width="744.09448819"
   height="1052.3622047"
   id="svg2"
   version="1.1"
   inkscape:version="0.48.2 r9819"
   sodipodi:docname="storkur.svg">
  <defs
     id="defs4" />
  <sodipodi:namedview
     id="base"
     pagecolor="#ffffff"
     bordercolor="#666666"
     borderopacity="1.0"
     inkscape:pageopacity="0.0"
     inkscape:pageshadow="2"
     inkscape:zoom="0.5"
     inkscape:cx="411.42723"
     inkscape:cy="393.11163"
     inkscape:document-units="px"
     inkscape:current-layer="layer1"
     showgrid="false"
     inkscape:window-width="1920"
     inkscape:window-height="1178"
     inkscape:window-x="0"
     inkscape:window-y="0"
     inkscape:window-maximized="1" />
  <metadata
     id="metadata7">
    <rdf:RDF>
      <cc:Work
         rdf:about="">
        <dc:format>image/svg+xml</dc:format>
        <dc:type
           rdf:resource="http://purl.org/dc/dcmitype/StillImage" />
        <dc:title></dc:title>
      </cc:Work>
    </rdf:RDF>
  </metadata>
  <g
     inkscape:label="Layer 1"
     inkscape:groupmode="layer"
     id="layer1">
    <image
       y="56.174232"
       x="66.080276"
       id="image4005"
       xlink:href="file:///Users/bthj/Desktop/iOS%20Simulator%20Screen%20shot%20Mar%2021,%202013%2011.04.48%20PM.png"
       height="960"
       width="640" />
    <image
       y="-151.39674"
       x="994.51788"
       id="image3044"
       xlink:href="file:///Users/bthj/Documents/nemur.net/Nefna/storkur_background_clean.png"
       height="1391"
       width="1184" />
    <path
       style="opacity:0.306;fill:#552200;fill-opacity:1"
       d="m 225.43311,701.27544 c 2.4559,-0.48774 12.51094,-1.25074 21.79328,-1.65369 6.20515,-0.26938 8.68472,-0.54289 10.59399,-1.16865 1.37099,-0.44938 4.36225,-0.94535 6.64722,-1.10225 5.41242,-0.37159 5.60859,-0.43739 5.60859,-1.88088 0,-1.33413 -0.8567,-2.38517 -2.21016,-2.71148 -1.7438,-0.42039 -16.32925,-0.8194 -21.886,-0.59877 -5.79312,0.23001 -7.06267,0.14501 -7.06267,-0.47292 0,-0.57352 4.351,-2.58927 9.7631,-4.52303 2.74198,-0.97973 6.92773,-2.6902 9.30167,-3.80107 2.37394,-1.11083 4.52697,-2.01973 4.78451,-2.01973 1.03247,0 8.34818,-4.02317 8.34818,-4.59099 0,-0.83967 -9.25843,-0.66472 -11.15849,0.2109 -0.71777,0.33075 -2.83082,0.98397 -4.69568,1.45157 -3.39298,0.85076 -10.39583,3.44783 -15.63423,5.79816 -1.53248,0.68762 -2.784,1.11773 -2.78117,0.95594 0.0105,-0.59887 5.73206,-3.98858 12.25067,-7.25784 2.28498,-1.14602 4.71536,-2.4986 5.40087,-3.00583 0.68549,-0.50716 2.23979,-1.42524 3.45399,-2.04014 1.55584,-0.78794 2.16658,-1.32667 2.06855,-1.8246 -0.12186,-0.61905 -0.62709,-0.68746 -4.07717,-0.5522 -4.25959,0.16705 -6.22762,0.75458 -9.97982,2.97951 -4.09012,2.42529 -4.74444,2.74807 -6.12258,3.02043 -0.74942,0.14814 -2.61895,1.27747 -4.15452,2.50966 -1.53555,1.23218 -3.35278,2.55316 -4.03827,2.93553 -0.68549,0.38238 -2.55503,1.52255 -4.15451,2.53369 -3.16574,2.00134 -5.85516,3.52342 -6.2255,3.52342 -0.52596,0 -1.07385,-2.39302 -1.64597,-7.18922 -0.57513,-4.82149 -0.79019,-9.20496 -1.28807,-26.25457 -0.12009,-4.11296 -0.30888,-7.73715 -0.41952,-8.05373 -0.57797,-1.65379 0.10343,-64.61367 0.71201,-65.78781 0.20586,-0.39717 0.78954,-0.81372 1.29706,-0.92565 2.06657,-0.45575 10.18765,-2.35254 11.93222,-2.78691 1.02824,-0.25603 2.04714,-0.62488 2.26421,-0.81969 0.21708,-0.19482 0.96753,-0.35421 1.66767,-0.35421 0.70015,0 2.29595,-0.37391 3.54624,-0.8309 1.2503,-0.457 2.83675,-0.83901 3.52547,-0.84892 0.68873,-0.01 4.05651,-0.76047 7.48399,-1.66792 3.42747,-0.90744 6.97957,-1.84726 7.89357,-2.08849 0.91399,-0.24123 3.15743,-0.68542 4.98541,-0.9871 1.82798,-0.30169 3.88447,-0.74281 4.56996,-0.98028 2.72537,-0.94414 8.88417,-2.19245 11.67904,-2.36718 3.47896,-0.2175 3.43697,-0.24889 5.97364,4.46435 1.12923,2.09814 1.63818,3.49266 1.46911,4.02534 -0.17834,0.56188 -0.004,0.95072 0.55748,1.25184 0.44888,0.24025 1.13646,1.40116 1.52796,2.57981 1.09278,3.29007 0.56316,7.54318 -2.35708,18.92819 -1.35374,5.27772 -1.64639,10.51099 -0.5878,10.51099 0.70658,0 2.1592,-2.4151 3.74822,-6.23175 2.1053,-5.05672 2.27997,-5.40087 2.74104,-5.40087 0.3089,0 0.37714,0.65151 0.20667,1.97338 -0.46404,3.59806 1.29106,4.08801 2.56194,0.71512 0.34191,-0.90742 1.09436,-2.86508 1.6721,-4.35032 2.05947,-5.29441 2.67343,-8.83012 2.10541,-12.12459 -0.42284,-2.45239 -2.755,-7.82699 -4.45743,-10.27241 -0.412,-0.59179 -1.39489,-2.38464 -2.18421,-3.98413 -5.69614,-11.54276 -5.98793,-12.06281 -7.10957,-12.67126 -1.06112,-0.57561 -1.27349,-0.55183 -2.78275,0.31158 -0.89867,0.51413 -2.13608,0.93477 -2.74979,0.93477 -0.61372,0 -1.88535,0.20176 -2.82586,0.44835 -0.9405,0.24658 -2.36433,0.61999 -3.16408,0.82977 -0.79975,0.20979 -3.13665,0.76808 -5.19314,1.24064 -2.05649,0.47256 -4.01948,0.97466 -4.36223,1.11577 -0.34275,0.14111 -1.65142,0.48502 -2.90816,0.76425 -5.49317,1.2205 -9.94106,2.23929 -12.2558,2.8072 -1.37099,0.33637 -3.98834,0.91045 -5.81632,1.27573 -1.82799,0.36527 -4.44532,0.94396 -5.81633,1.28597 -1.37098,0.34201 -4.26875,1.01577 -6.43948,1.49725 -2.17073,0.48148 -4.52065,1.11598 -5.22203,1.40999 -0.70139,0.29401 -2.68529,0.6667 -4.40866,0.82821 l -3.13342,0.29362 -0.28933,-3.31679 c -0.15913,-1.82425 -0.18853,-5.53612 -0.0653,-8.24859 0.12321,-2.7125 0.33531,-7.45567 0.47134,-10.54039 0.13603,-3.08473 0.41729,-6.50772 0.625,-7.60666 0.20771,-1.09894 0.56596,-3.99671 0.7961,-6.43949 0.63707,-6.76187 1.97837,-14.39043 3.30103,-18.77449 1.14656,-3.80031 2.55147,-11.456 2.53324,-13.80417 -0.006,-0.79278 0.33421,-1.34559 1.13369,-1.84133 0.62837,-0.38964 1.64469,-1.16532 2.25849,-1.72373 1.21316,-1.1037 2.24904,-1.74384 4.49259,-2.77629 0.79974,-0.36803 2.01495,-1.18686 2.70043,-1.81962 0.68549,-0.63277 1.71374,-1.47009 2.28499,-1.86071 1.00664,-0.68837 3.20682,-2.32905 8.01108,-5.97386 1.27359,-0.96622 2.5627,-2.09118 2.86471,-2.49992 0.30201,-0.40874 1.04501,-1.05946 1.65111,-1.44603 1.61333,-1.029 7.35396,-6.86615 9.32748,-9.48431 3.18122,-4.22035 5.94463,-8.5382 7.84689,-12.26087 1.04296,-2.04102 2.34815,-4.45875 2.90043,-5.37274 1.38743,-2.29612 6.68518,-13.06226 7.05293,-14.33307 0.16533,-0.57125 0.82684,-2.44077 1.47005,-4.15451 2.33482,-6.22078 3.76148,-12.59011 4.30616,-19.22491 0.92942,-11.32133 0.33327,-27.52377 -1.20911,-32.8616 -0.32177,-1.11357 -0.49997,-2.1623 -0.39602,-2.33051 0.10396,-0.16821 -0.004,-1.87445 -0.24019,-3.79165 -0.23606,-1.91719 -0.49005,-4.3271 -0.56443,-5.35534 -0.0743,-1.02824 -0.37448,-2.71082 -0.6669,-3.73906 -0.29241,-1.02825 -0.48872,-2.27888 -0.43621,-2.7792 0.0525,-0.50031 -0.18432,-2.55679 -0.52626,-4.56996 -0.34195,-2.01315 -0.75168,-5.2494 -0.91052,-7.19163 -0.15881,-1.94224 -0.47344,-3.88665 -0.69915,-4.32093 -0.22571,-0.43426 -0.43548,-2.4286 -0.46615,-4.43186 -0.0307,-2.00325 -0.18355,-3.76988 -0.33972,-3.92584 -0.55488,-0.55413 -1.17013,0.28386 -1.17013,1.59375 -0.36097,4.31477 0.82749,5.83039 1.04193,11.19786 0.25227,5.03445 0.4462,6.59093 1.00435,8.92308 0.80544,3.01274 1.27273,5.741 1.47654,8.62061 0.11321,1.59948 0.46609,4.40378 0.78419,6.23177 0.37195,2.13738 0.44085,3.5866 0.19307,4.06045 -0.26709,0.51078 -0.2036,0.91856 0.20694,1.3291 0.34944,0.34943 0.70722,1.92104 0.87265,3.83312 0.15421,1.78247 0.47155,4.75701 0.70523,6.61008 0.80483,6.38282 0.51642,23.1216 -0.44183,25.64197 -0.24322,0.63971 -0.44221,1.86188 -0.44221,2.71594 0,0.85406 -0.47902,3.31901 -1.0645,5.47768 -0.58547,2.15866 -1.2195,4.5297 -1.40895,5.26896 -0.18945,0.73926 -0.73867,2.10043 -1.22048,3.02482 -0.48182,0.92438 -0.87603,1.93986 -0.87603,2.25663 0,0.72795 -1.35248,3.67103 -2.68281,5.83798 -0.56112,0.91398 -1.03935,1.94223 -1.06276,2.28497 -0.0234,0.34275 -0.45215,1.39386 -0.95278,2.33579 -0.50063,0.94195 -1.68331,3.20182 -2.62819,5.02193 -2.01592,3.88331 -3.68291,6.5902 -4.28926,6.96494 -0.23776,0.14695 -0.43229,0.54904 -0.43229,0.89354 0,0.34451 -0.46738,1.23915 -1.03863,1.9881 -0.57124,0.74894 -1.03862,1.54296 -1.03862,1.76448 0,0.71861 -3.79541,6.08511 -5.97005,8.44132 -3.33942,3.61822 -6.98723,7.063 -8.57074,8.0937 -0.79974,0.52056 -2.20189,1.64306 -3.11588,2.49444 -3.648,3.39813 -15.14101,11.94435 -16.74926,12.45479 -0.45781,0.14529 -1.0591,0.53738 -1.33621,0.87128 -0.27712,0.33389 -1.04181,0.60708 -1.69933,0.60708 -0.65751,0 -1.19548,0.17958 -1.19548,0.39903 0,0.44937 -7.2788,4.17093 -8.15767,4.17093 -0.31174,0 -0.56681,-0.18695 -0.56681,-0.41545 0,-0.7011 -1.02217,-0.4616 -1.77312,0.41545 -0.75462,0.88133 -0.75987,0.88205 -7.98997,1.09369 -10.67463,0.31248 -11.38988,0.36701 -11.92345,0.90894 -0.44705,0.45404 0.42618,0.54151 5.06849,0.50765 3.08474,-0.0225 6.23445,0.0818 6.99939,0.2316 0.7823,0.15326 2.08394,0.0437 2.97509,-0.25038 0.87137,-0.28757 2.08987,-0.39597 2.7078,-0.24087 0.97744,0.24531 1.09237,0.43763 0.88403,1.47931 -0.44164,2.20825 -3.61402,7.24788 -6.83859,10.86381 -1.75801,1.97137 -3.66375,4.36234 -4.235,5.31328 -0.57124,0.95094 -1.82673,2.93166 -2.78996,4.40158 -0.96323,1.46994 -2.15516,3.47236 -2.64874,4.44983 -0.49358,0.97747 -1.50263,2.6185 -2.24234,3.64675 -1.38359,1.92323 -15.01426,28.89967 -16.47867,32.61291 -3.49201,8.85443 -5.75277,16.78214 -5.75277,20.17289 0,2.1078 0.16237,2.66931 1.01975,3.52672 0.56085,0.56086 1.26192,1.01516 1.55794,1.00959 1.1793,-0.0224 4.25027,-0.88869 5.79475,-1.63492 0.8987,-0.43419 2.20735,-0.91536 2.90814,-1.0693 0.70076,-0.15393 2.27215,-0.72122 3.49197,-1.26068 2.75166,-1.2169 8.9944,-3.22702 12.85494,-4.13913 1.5995,-0.3779 4.09632,-1.04375 5.54849,-1.4796 1.45219,-0.43589 3.299,-0.79251 4.10403,-0.79251 l 1.4637,0 -0.19823,3.21975 c -0.13824,2.24531 -0.54561,4.0351 -1.34604,5.91386 -1.34697,3.1615 -1.26774,5.83775 0.23292,7.86752 1.60709,2.17372 1.48064,-0.0607 2.87022,50.71741 0.22197,8.11168 0.5095,21.38533 0.63895,29.49701 0.28178,17.65743 0.55645,19.38594 3.34051,21.02133 1.40862,0.82743 2.22357,0.98982 4.77769,0.95205 1.69366,-0.0247 3.83525,-0.19562 4.75909,-0.3791 z m -43.3081,-121.34427 c -0.33261,-0.33261 -0.12169,-1.20992 0.77409,-3.21974 2.25996,-5.07051 6.76902,-13.94898 8.34525,-16.43203 0.85687,-1.34983 1.55793,-2.6083 1.55793,-2.79661 0,-0.18832 1.80269,-3.47774 4.00595,-7.30986 2.20326,-3.8321 4.44811,-7.90222 4.98856,-9.0447 0.54045,-1.1425 1.63817,-3.19898 2.43938,-4.56996 0.80121,-1.37099 2.14946,-3.84812 2.99611,-5.50473 0.84665,-1.65661 1.64695,-3.01202 1.77848,-3.01202 0.52621,0 1.95975,41.93987 1.49661,43.78515 -0.21236,0.84608 -0.88293,1.18716 -4.51116,2.29457 -7.76133,2.3689 -9.64931,2.91208 -11.03372,3.17438 -0.75411,0.14288 -2.53017,0.73953 -3.94679,1.3259 -4.00785,1.6589 -7.95935,2.24099 -8.89069,1.30965 z M 78.345509,521.82166 c 0.685494,-0.17516 2.08764,-0.6364 3.115883,-1.02497 1.028238,-0.38856 2.897772,-1.04451 4.154511,-1.45766 1.256741,-0.41315 4.600784,-1.62162 7.431191,-2.68548 10.393506,-3.90657 22.287126,-6.61574 32.036666,-7.29741 3.54172,-0.24762 8.86988,-0.63904 11.84035,-0.86977 5.18769,-0.40297 20.37155,-1.07047 33.02837,-1.45194 7.9519,-0.23967 11.08254,-0.43523 15.57941,-0.97317 2.05649,-0.24601 4.62709,-0.44883 5.71246,-0.4507 1.0863,-0.003 1.9734,-0.19752 1.9734,-0.43522 0,-0.42831 -3.47613,-0.36243 -14.43694,0.27357 -3.32601,0.19299 -4.67383,0.13743 -4.67383,-0.19266 0,-0.53707 2.4091,-4.40966 4.43375,-7.12721 4.68642,-6.2903 5.53709,-7.47329 5.53709,-7.7003 0,-0.57758 5.42844,-8.41466 6.81018,-9.83192 0.82436,-0.84554 1.49884,-1.71067 1.49884,-1.92252 0,-0.21185 0.28043,-0.6179 0.62318,-0.90236 0.34275,-0.28446 0.62317,-0.84533 0.62317,-1.24636 0,-0.40104 0.28044,-0.9619 0.62318,-1.24635 0.34274,-0.28446 0.62318,-0.80942 0.62318,-1.16658 0,-0.35717 0.41575,-1.09194 0.92387,-1.63283 0.7834,-0.83387 0.83078,-1.0423 0.3116,-1.37062 -0.80542,-0.50934 -1.65093,-0.50424 -1.65093,0.01 0,0.55202 -4.3585,2.3685 -9.13992,3.80919 -0.79974,0.24098 -1.92146,0.68823 -2.4927,0.99392 -1.59726,0.85471 -7.44259,3.3284 -9.76311,4.13166 -2.16712,0.75016 -3.24716,1.18753 -6.55446,2.65426 -1.09148,0.48404 -2.38544,0.88009 -2.87545,0.88009 -0.49001,0 -1.20649,0.28556 -1.59216,0.63458 -1.15211,1.04264 -13.18386,5.83362 -13.60146,5.41601 -0.21766,-0.21765 4.3534,-7.095 5.16147,-7.76564 0.30747,-0.25515 0.55905,-0.63142 0.55905,-0.8361 0,-0.2047 1.21518,-2.22101 2.70043,-4.4807 1.48523,-2.25969 2.70042,-4.22531 2.70042,-4.36805 0,-0.14274 0.81901,-1.51543 1.81999,-3.05042 3.27557,-5.02295 5.65814,-9.15993 5.65814,-9.8245 0,-1.21881 -0.2613,-1.10308 -13.50217,5.98059 -1.82798,0.97795 -3.51056,1.92219 -3.73906,2.09832 -1.78808,1.37825 -21.43767,11.72249 -21.72392,11.43625 -0.42404,-0.42404 0.81403,-1.80425 1.73412,-2.80222 0.42716,-0.46332 0.44107,-0.52741 0.81724,-1.05291 0.45809,-0.63992 0.13636,-0.15768 3.83063,-5.59133 1.14254,-1.68051 4.01833,-5.79058 6.35441,-9.15843 2.33607,-3.36784 4.61285,-6.31891 5.05952,-6.55797 0.46038,-0.24639 0.81213,-0.86754 0.81213,-1.43414 0,-0.54971 0.18694,-1.11502 0.41544,-1.25624 0.49667,-0.30695 0.55408,-1.73482 0.0815,-2.02689 -0.42974,-0.26559 -3.60692,0.4143 -5.48237,1.17319 -0.79975,0.32361 -3.13666,1.08447 -5.19314,1.69081 -2.05647,0.60634 -4.39317,1.45249 -5.24783,1.73153 -1.18396,0.38655 -1.47376,0.34777 -2.1963,0.48484 -0.61161,0.11602 -0.74229,0.15511 -1.20952,0.3469 -0.65045,0.26702 -0.82357,0.59597 -9.54258,3.34047 -1.0965,0.34515 -2.07726,0.54392 -2.17948,0.4417 -0.10221,-0.10222 0.27532,-0.6191 0.83897,-1.14862 0.79369,-0.74563 1.02175,-0.46326 1.59452,-0.48993 0.74083,-0.0345 1.00268,-0.29829 1.11645,-1.04329 0.11089,-0.72614 0.23146,-0.96938 0.95554,-0.96938 0.71976,-0.46319 0.73034,-1.03055 0.19999,-1.62211 -0.87914,-0.54903 -1.19129,-0.29838 -6.75709,5.42597 -6.08389,6.25719 -12.99146,15.02635 -18.380121,23.33361 -0.862706,1.32996 -2.409852,3.61264 -3.438096,5.07262 -1.028244,1.45997 -3.365153,4.99875 -5.193139,7.86394 -1.827986,2.8652 -4.677228,7.21934 -6.331642,9.67589 -6.325777,9.39273 -8.171963,14.83085 -5.793506,17.06529 1.015657,0.95418 1.400863,1.0108 3.400676,0.49978 z M 122.4986,451.36724 c 0.50786,-0.35571 0.92335,-0.83629 0.92335,-1.06796 0,-0.66645 3.39605,-4.51708 3.98384,-4.51708 0.29157,0 0.66286,-0.4182 0.8251,-0.92933 0.16222,-0.51114 1.20176,-1.85539 2.31007,-2.98723 1.10832,-1.13182 2.12249,-2.3962 2.25374,-2.80972 0.13125,-0.41352 0.59993,-0.75184 1.04154,-0.75184 0.44159,0 0.80289,-0.25854 0.80289,-0.57451 0,-0.73539 2.82739,-5.19456 6.02405,-9.50076 1.37098,-1.84685 3.21106,-4.40167 4.08904,-5.67739 1.46469,-2.1282 2.42362,-3.3559 6.84148,-8.75896 2.70206,-3.30462 10.48628,-10.56695 12.36777,-11.53858 0.66733,-0.34461 1.92315,-1.26199 2.79072,-2.03861 1.83422,-1.64194 13.058,-7.18239 16.70245,-8.2449 1.37099,-0.39971 3.24052,-1.06261 4.15451,-1.47313 2.88679,-1.29655 11.90909,-2.6432 17.65667,-2.6354 5.41845,0.008 11.22572,0.6637 14.72006,1.66362 1.12684,0.32247 2.52012,0.58629 3.09618,0.58629 1.22795,0 10.43444,4.4117 10.43444,5.00012 0,0.22041 0.39198,0.40075 0.87107,0.40075 0.77546,0 6.29631,3.35945 8.47657,5.15803 0.457,0.377 2.13958,1.63416 3.73907,2.79373 l 2.90815,2.10827 2.86282,-0.26066 c 2.37648,-0.21639 3.10234,-0.47099 4.27282,-1.49869 0.77551,-0.68091 1.60263,-1.23801 1.83805,-1.23801 0.23542,0 1.04742,-1.35542 1.80443,-3.01203 l 1.37641,-3.01201 -0.53038,-7.06268 c -0.29171,-3.88446 -0.64694,-7.90395 -0.78942,-8.9322 -0.91237,-6.58491 -3.17651,-40.3184 -3.17883,-47.36141 -4.1e-4,-1.71374 -0.25257,-6.53463 -0.56002,-10.71309 -0.30745,-4.17845 -0.54126,-7.82403 -0.51959,-8.10128 0.0217,-0.27727 -0.1071,-1.71931 -0.28617,-3.20455 -0.17905,-1.48523 -0.38537,-4.28953 -0.45846,-6.23176 -0.12302,-3.26891 -0.76419,-13.46229 -1.21558,-19.32545 -0.10585,-1.37483 -0.32456,-4.75843 -0.48605,-7.51911 -0.29201,-3.99401 -0.25507,-4.88636 -0.38123,-7.11121 -0.16089,-0.40393 -0.38808,-4.94084 -0.50487,-10.08205 -0.16643,-7.3276 -0.069,-10.28057 0.45083,-13.6647 0.36473,-2.37439 0.82477,-4.52434 1.02231,-4.7777 0.19753,-0.25333 0.47902,-1.09199 0.62552,-1.86366 0.86913,-4.57802 6.29179,-11.86771 11.2875,-15.17377 5.26909,-3.48698 6.07512,-3.83413 10.10092,-4.35042 6.34577,-0.81381 10.56037,0.31224 17.09908,4.56852 4.09299,2.66426 7.67116,7.05847 11.21718,13.77539 l 1.45408,2.75434 -0.78007,1.44944 c -0.84665,1.57315 -4.11375,4.03396 -7.73667,5.82735 -2.88505,1.42813 -4.06501,2.50705 -5.03109,4.60027 -0.99234,2.15009 -0.97674,3.34597 0.086,6.58301 l 0.87113,2.65367 -1.09099,1.72825 -1.091,1.72824 1.15461,-0.25989 c 0.63505,-0.14294 1.59831,-0.74592 2.14057,-1.33998 0.97205,-1.06486 1.0774,-1.08158 7.47812,-1.18631 3.57071,-0.0584 7.33346,-0.19248 8.3617,-0.2979 1.02825,-0.10542 4.58035,-0.39464 7.89358,-0.64273 3.31322,-0.24806 8.26747,-0.64505 11.00946,-0.88217 7.94984,-0.68748 16.92648,-1.31995 18.27984,-1.28794 0.68549,0.0161 3.13599,-0.15591 5.44554,-0.38252 2.30955,-0.22659 5.95514,-0.42144 8.1013,-0.43302 2.14616,-0.0115 5.41103,-0.27686 7.25527,-0.58957 1.84423,-0.3127 5.30559,-0.56552 7.69193,-0.56181 2.38632,0.003 5.55122,-0.18648 7.03311,-0.42262 1.48189,-0.23614 5.86414,-0.63585 9.73834,-0.88822 3.8742,-0.25237 7.20311,-0.5572 7.39758,-0.6774 0.19449,-0.1202 2.72676,-0.36105 5.62727,-0.53524 2.90053,-0.17418 5.60085,-0.45709 6.00072,-0.62868 1.05213,-0.45149 0.94689,0.51803 -0.57368,5.2846 -1.20086,3.7643 -1.32945,5.19127 -0.38102,4.2277 0.20992,-0.21325 0.77319,-1.78989 1.25172,-3.50363 3.00469,-10.7605 2.17183,-9.55537 6.60368,-9.55537 l 3.70152,0 0.69443,2.12307 c 0.38193,1.16769 0.6063,2.21119 0.49862,2.31886 -0.10768,0.1077 0.0909,0.88163 0.44143,1.71986 0.35047,0.83823 0.90669,2.55229 1.23605,3.80904 0.32936,1.25673 1.07013,4.06103 1.64617,6.23176 0.57603,2.17074 1.75589,6.6576 2.6219,9.97082 3.92279,15.00811 4.62225,17.55361 5.20985,18.95993 0.34439,0.82425 0.62617,2.0058 0.62617,2.62566 0,0.61984 0.35365,2.23286 0.78587,3.58446 1.09001,3.40853 2.328,8.94621 2.21032,9.88708 -0.0539,0.43033 0.0993,1.01996 0.34022,1.31026 0.24093,0.29031 0.71971,1.71428 1.06395,3.16437 0.77272,3.25508 1.70825,6.73885 2.32573,8.66058 0.25696,0.79974 0.89861,3.3236 1.4259,5.60859 0.52725,2.28497 1.34844,5.55665 1.82485,7.27039 0.4764,1.71373 1.05981,4.14411 1.29645,5.40086 0.23665,1.25674 0.71751,2.89564 1.06855,3.64202 0.39657,0.84312 0.54008,1.84812 0.37892,2.65384 -0.18682,0.93413 -0.0732,1.43293 0.40618,1.78348 0.73249,0.5356 1.46498,3.25366 1.57338,5.83828 0.0384,0.91399 0.28352,2.12918 0.54484,2.70042 0.73108,1.59805 1.78834,5.2525 1.78834,6.18146 0,0.4577 0.18695,0.94772 0.41546,1.08894 0.22849,0.14122 0.41545,0.62616 0.41545,1.07765 0,0.45148 0.49327,2.31339 1.09617,4.13755 1.05864,3.20312 1.07057,3.34495 0.34875,4.14257 -0.82044,0.90657 -0.81982,0.90846 0.5401,1.61626 0.52052,0.2709 0.82662,0.68638 0.68023,0.92327 -0.14641,0.23687 0.0376,1.11552 0.40892,1.95254 0.3713,0.83702 1.0589,3.20443 1.528,5.26091 0.46908,2.05648 1.05408,4.58035 1.29998,5.6086 0.51683,2.16119 -0.0363,5.605 -1.41744,8.82485 -0.83686,1.951 -3.59101,4.88338 -4.58977,4.8868 -0.28496,7e-4 -1.35941,0.56463 -2.38766,1.25255 -2.43988,1.63234 -8.67431,3.56102 -17.62894,5.45365 -1.90964,0.40362 -2.50244,0.40866 -2.6312,0.0224 -0.23151,-0.69453 -1.32108,-0.62449 -1.60019,0.10287 -0.20099,0.52374 -1.29162,0.84455 -5.87102,1.72694 -0.51412,0.0991 -0.93477,0.35996 -0.93477,0.57974 0,0.71317 2.11265,0.95369 4.3018,0.48975 1.17573,-0.24918 3.63332,-0.66384 5.4613,-0.92149 4.18737,-0.59017 8.24055,-1.50149 10.38627,-2.33526 0.914,-0.35515 2.50311,-0.88168 3.53134,-1.17005 3.77832,-1.05963 6.09366,-2.11194 9.05995,-4.11771 2.64793,-1.79052 3.18519,-2.37592 4.20427,-4.58102 0.64261,-1.3905 1.39287,-3.83685 1.66725,-5.43633 0.871,-5.07736 0.65031,-4.78033 5.24725,-7.06268 4.86089,-2.41338 7.22495,-4.02731 9.49572,-6.48267 2.12256,-2.29512 2.48738,-4.42456 1.73109,-10.10462 -0.45125,-3.38911 -0.87562,-4.8175 -2.23087,-7.50887 -0.9205,-1.82798 -2.11254,-3.8156 -2.649,-4.41689 -0.53649,-0.60131 -1.5097,-1.78505 -2.16273,-2.63055 -1.47406,-1.90852 -4.22636,-3.13111 -7.0488,-3.13111 l -2.1432,0 -3.63868,3.79795 c -2.00127,2.08886 -3.63868,3.5326 -3.63868,3.20831 0,-0.32428 -0.32579,-1.05186 -0.72399,-1.61682 -0.39821,-0.56496 -0.75667,-1.49459 -0.79659,-2.06583 -0.15912,-2.27734 -1.2901,-6.46988 -2.05818,-7.62968 -0.28218,-0.42609 -0.41277,-1.03607 -0.29021,-1.3555 0.12258,-0.31943 -0.0218,-0.8755 -0.32069,-1.23572 -0.29896,-0.36023 -0.60142,-1.64621 -0.67215,-2.85773 -0.0707,-1.21152 -0.43391,-3.01764 -0.80706,-4.01358 -0.37316,-0.99595 -0.8225,-2.74557 -0.99852,-3.88808 -0.17603,-1.14248 -0.51837,-2.73158 -0.76074,-3.53132 -0.24238,-0.79975 -0.83303,-2.94971 -1.31256,-4.7777 -0.47953,-1.82799 -1.14933,-3.75276 -1.48844,-4.2773 -0.33912,-0.52453 -0.50708,-1.29867 -0.37327,-1.72028 0.13383,-0.42162 -0.0404,-1.58156 -0.38741,-2.57765 -0.3469,-0.99607 -0.63413,-2.27843 -0.63832,-2.84968 -0.004,-0.57123 -0.38081,-1.65073 -0.83696,-2.39887 -0.45613,-0.74815 -0.82934,-2.00614 -0.82934,-2.79555 0,-0.78941 -0.49625,-2.88811 -1.10277,-4.66379 -0.60653,-1.77567 -1.24958,-3.9763 -1.42901,-4.89029 -0.17942,-0.914 -0.63536,-2.69005 -1.01318,-3.94679 -0.37783,-1.25674 -0.92713,-3.31323 -1.22067,-4.56996 -0.29354,-1.25674 -1.48655,-5.93057 -2.65112,-10.38628 -1.16459,-4.45571 -2.97123,-11.37298 -4.01478,-15.37169 -1.04355,-3.99871 -2.25043,-8.3921 -2.68199,-9.7631 -0.43153,-1.37098 -0.90311,-3.08706 -1.04793,-3.81349 -0.25884,-1.29819 -0.23269,-1.32449 1.52888,-1.53862 2.00708,-0.24396 11.35902,-0.78195 16.12528,-0.92764 4.67542,-0.14291 7.99989,-0.41043 8.96102,-0.72111 1.34359,-0.4343 2.78906,-2.65317 2.49406,-3.82854 -0.4581,-1.82524 -1.65828,-2.17474 -8.54693,-2.48889 -8.33456,-0.3801 -9.43289,-0.42269 -19.31848,-0.74918 -4.56996,-0.15093 -11.76764,-0.39232 -15.99487,-0.53642 -4.2272,-0.14411 -9.36842,-0.30736 -11.42489,-0.36276 -2.05649,-0.0555 -5.98251,-0.21955 -8.72448,-0.36476 -5.07388,-0.2687 -17.60066,-0.74508 -19.11075,-0.72678 -0.45699,0.005 -2.0461,0.026 -3.53133,0.0453 -1.48524,0.0195 -3.6352,-0.0926 -4.77769,-0.24883 -1.14249,-0.15627 -3.4794,-0.3212 -5.19314,-0.36653 -1.71373,-0.0453 -5.8267,-0.22888 -9.13993,-0.40791 -3.31322,-0.17903 -8.64138,-0.37475 -11.84035,-0.43492 -3.19897,-0.0602 -7.49889,-0.24555 -9.55537,-0.41193 -4.17175,-0.3375 -6.78434,-0.45757 -12.87898,-0.59193 -7.41629,-0.16347 -6.75669,0.18611 -9.27323,-4.91466 -2.76906,-5.61262 -4.37006,-7.80523 -7.71215,-10.56194 -6.35297,-5.24022 -11.13858,-7.10279 -18.36794,-7.14883 -2.90705,-0.0185 -4.82539,0.14748 -5.19314,0.44935 -0.32077,0.26328 -1.42449,0.70132 -2.45274,0.97341 -1.02823,0.2721 -2.14995,0.73914 -2.4927,1.03788 -0.34275,0.29873 -1.27751,0.81562 -2.07726,1.14864 -2.1874,0.91086 -8.8772,7.80465 -10.65008,10.97486 -1.53946,2.75282 -2.94145,6.75924 -4.19061,11.97538 -0.95646,3.99385 -0.95488,16.67658 0.003,31.15884 0.40843,6.16945 1.01723,15.51709 1.35289,20.77254 0.33566,5.25547 0.79447,11.79882 1.01958,14.5408 0.22512,2.74197 0.70048,11.34182 1.05636,19.11075 1.03072,22.50088 1.77483,33.60666 3.31657,49.49917 0.56595,5.83257 1.0289,11.83832 1.0289,13.34609 0,4.53509 -1.98527,7.56602 -5.91259,9.02685 -2.46609,0.91728 -3.69233,0.49284 -6.85754,-2.37358 -1.20721,-1.09325 -2.43972,-1.98772 -2.73891,-1.98772 -0.2992,0 -1.27873,-0.62655 -2.17672,-1.39231 -2.524,-2.15234 -14.37244,-8.40096 -16.76524,-8.84163 -0.81704,-0.15047 -2.23333,-0.54154 -3.14734,-0.86905 -4.57915,-1.64086 -21.0405,-2.87117 -24.71933,-1.84752 -0.79974,0.22254 -3.04318,0.81821 -4.98541,1.32374 -1.94224,0.50552 -5.13655,1.34074 -7.09846,1.85605 -6.07116,1.59464 -15.68697,6.33861 -22.6063,11.15285 -6.29554,4.38025 -16.32004,15.97044 -24.55767,28.3933 -1.79244,2.7031 -5.41312,7.55987 -8.04595,10.79282 -4.44009,5.45214 -7.71814,9.56993 -9.09603,11.42617 -0.48441,0.6526 -0.4827,0.76787 0.0114,0.76787 0.31979,0 0.99693,-0.29104 1.50475,-0.64674 z m 296.89798,-34.25117 c 2.21608,-0.37978 1.77097,-1.2434 -0.65814,-1.27695 -16.53835,-0.22845 -27.94699,-3.8961 -37.77961,-12.14536 -5.13956,-4.31196 -6.15936,-7.31075 -4.66918,-13.73029 1.26608,-5.45424 2.50683,-8.71826 3.44611,-9.06573 0.74097,-0.2741 0.79557,-0.44049 0.36879,-1.12387 -0.40969,-0.65601 -0.29261,-1.50919 0.64275,-4.68363 2.00638,-6.8093 3.06167,-10.44728 3.95795,-13.64462 0.4804,-1.71373 1.90456,-6.76146 3.1648,-11.21718 1.26025,-4.45571 2.74733,-9.78386 3.30463,-11.84034 0.5573,-2.0565 2.05065,-7.47812 3.31858,-12.04808 1.26791,-4.56997 2.78136,-10.27204 3.3632,-12.67127 0.58183,-2.39923 1.52173,-6.11537 2.08865,-8.25811 0.56692,-2.14273 0.9255,-4.00113 0.79685,-4.12978 -0.52123,-0.52122 -1.38859,1.12515 -2.03942,3.87115 -0.3791,1.59948 -1.32278,4.96463 -2.09706,7.47811 -0.77429,2.51348 -1.71725,5.69168 -2.09547,7.06268 -0.37822,1.37098 -0.95494,3.42746 -1.2816,4.56996 -1.64963,5.76942 -3.1943,11.47706 -3.71034,13.70988 -0.31687,1.37099 -0.88134,3.334 -1.25441,4.36224 -0.37306,1.02824 -1.29386,4.20644 -2.04621,7.06266 -3.04605,11.56406 -3.76377,13.11794 -5.54509,12.00549 -0.68177,-0.42577 -1.84518,-0.43911 -5.76711,-0.0662 -5.63943,0.53629 -8.15644,1.44902 -9.68976,3.51376 -3.76356,5.06795 -4.57096,7.09029 -4.57096,11.44944 0,4.56094 3.41869,9.57046 8.9322,13.0887 0.91399,0.58323 2.30487,1.60892 3.09083,2.27932 1.34779,1.14962 1.4229,1.35105 1.32133,3.54368 -0.12361,2.66843 0.14281,3.27394 3.02069,6.86523 1.3553,1.69126 3.31953,3.4336 5.52612,4.90182 1.88289,1.25283 3.52581,2.44349 3.65091,2.64591 0.1251,0.20243 0.92593,0.59701 1.77962,0.87683 0.85369,0.27984 2.11301,0.9337 2.79851,1.45302 1.74479,1.32184 10.91661,4.3007 15.37169,4.99248 2.36222,0.3668 11.43155,0.48241 13.26015,0.16901 z M 277.42049,340.00714 c 0.15165,-0.39523 0.0623,-4.0994 -0.19851,-8.23148 -0.26085,-4.1321 -0.49307,-11.43892 -0.51607,-16.23738 -0.023,-4.79846 -0.23023,-9.59648 -0.46051,-10.66228 -0.34576,-1.60024 -0.29816,-2.12172 0.27321,-2.99374 0.38053,-0.58077 0.59622,-1.21073 0.47932,-1.3999 -0.54698,-0.885 -0.20958,-13.8435 0.53914,-20.70789 0.57517,-5.27298 1.44944,-7.05073 4.06298,-8.26161 1.13958,-0.52796 2.70523,-1.09242 3.47921,-1.25429 2.80518,-0.58677 5.43068,-1.5903 5.64898,-2.1592 0.38311,-0.99836 -0.27406,-1.16134 -1.66417,-0.41271 -1.60914,0.86657 -5.69892,1.98992 -6.17455,1.69598 -0.5947,-0.36756 -3.99359,1.37832 -4.65396,2.39055 -0.34937,0.53551 -0.84004,1.89167 -1.09039,3.01373 -0.77429,2.13565 -0.62327,2.69795 -0.71814,3.83852 -0.077,0.88218 0.004,0.73235 -0.0939,1.09815 -0.25891,0.44645 -0.33344,3.0248 -0.62348,9.22582 -0.0962,2.05648 -0.30218,5.8165 -0.45775,8.35559 -0.41419,6.76005 -0.44537,8.52032 -0.15414,8.70032 0.14343,0.0886 0.31198,4.13934 0.37458,9.00157 0.25968,20.17042 0.50839,24.99952 1.31322,25.49692 0.19749,0.12206 0.48316,-0.10144 0.63482,-0.49667 z m 123.5985,-38.91789 c 0.25163,-0.74261 1.82078,-5.64842 2.2088,-7.36214 0.38803,-1.71375 1.06731,-4.17434 1.50949,-5.468 0.85832,-2.51104 2.08009,-7.90717 1.8438,-8.14345 -0.46526,-0.46527 -1.88845,3.14816 -2.49748,6.34105 -0.39226,2.05648 -0.97888,4.15313 -1.30358,4.6592 -0.32471,0.50608 -0.59038,1.3872 -0.59038,1.95803 0,0.57082 -0.37389,1.98646 -0.8309,3.14587 -0.457,1.1594 -1.8767,5.27758 -1.8767,5.61186 0,1.1348 1.07718,0.61447 1.53695,-0.74242 z m 5.73732,-20.51083 c 0.13708,-0.85687 3.48293,-13.14499 3.69894,-13.54177 0.21602,-0.39677 0.39276,-1.13524 0.39276,-1.64103 0,-1.39573 -0.85824,-0.31944 -1.27744,1.60198 -0.19094,0.87523 -3.52777,13.36791 -3.67888,13.99627 -0.16986,0.70635 -0.10484,1.1425 0.17031,1.1425 0.24478,0 0.55722,-0.70108 0.69431,-1.55795 z m -120.32565,-37.859 c 1.19737,-0.72012 2.75629,-3.61931 2.75629,-5.126 0,-1.39359 -1.13493,-3.60241 -2.12256,-4.13098 -1.54589,-0.82734 -5.5839,-0.57462 -7.24758,0.4536 -1.74615,1.07917 -2.2625,1.96433 -2.2625,3.87853 0,2.19798 0.62576,3.41634 2.35988,4.59471 1.87996,1.27746 4.70347,1.42051 6.51647,0.33014 z"
       id="path3143"
       inkscape:connector-curvature="0"
       sodipodi:nodetypes="cscsssssccsscssscssssssscssssssssssscssssssscssssssssssssssssssssssssscssssssssssssssssssssssccsssssssscccssssssssssssscsssssssssssssssssssssssssssssscccssscscssssssccsssssssssssssssssssssscssssssssssssssssssssscsssssssssssssssssssssscsssccssssscscssssssssssssssssssssscsssscsscscsssccsssssssscsssscccsssssscssscssssssssscscssssssssssssssssscsssssssccssscsssssssssssssssssssscsssssscsssssssccssssssssssssssssssscsssssssssscssssssssscsssssssssssssssccssssssssssssssssssssssssssssssssssscsssssssssssscccsssssccssssssssssssssssssssssss" />
  </g>
</svg>
