<?xml version="1.0" encoding="UTF-8" standalone="no"?>
<!-- Created with Inkscape (http://www.inkscape.org/) -->

<svg
   xmlns:dc="http://purl.org/dc/elements/1.1/"
   xmlns:cc="http://creativecommons.org/ns#"
   xmlns:rdf="http://www.w3.org/1999/02/22-rdf-syntax-ns#"
   xmlns:svg="http://www.w3.org/2000/svg"
   xmlns="http://www.w3.org/2000/svg"
   xmlns:sodipodi="http://sodipodi.sourceforge.net/DTD/sodipodi-0.dtd"
   xmlns:inkscape="http://www.inkscape.org/namespaces/inkscape"
   id="svg2"
   version="1.1"
   inkscape:version="0.48.2 r9819"
   width="640"
   height="640"
   xml:space="preserve"
   sodipodi:docname="Helveticons.pdf"><metadata
     id="metadata8"><rdf:RDF><cc:Work
         rdf:about=""><dc:format>image/svg+xml</dc:format><dc:type
           rdf:resource="http://purl.org/dc/dcmitype/StillImage" /><dc:title></dc:title></cc:Work></rdf:RDF></metadata><defs
     id="defs6"><clipPath
       clipPathUnits="userSpaceOnUse"
       id="clipPath18"><path
         d="M 0,0 512,0 512,512 0,512 0,0 z"
         id="path20" /></clipPath></defs><sodipodi:namedview
     pagecolor="#ffffff"
     bordercolor="#666666"
     borderopacity="1"
     objecttolerance="10"
     gridtolerance="10"
     guidetolerance="10"
     inkscape:pageopacity="0"
     inkscape:pageshadow="2"
     inkscape:window-width="615"
     inkscape:window-height="549"
     id="namedview4"
     showgrid="false"
     inkscape:zoom="0.20968541"
     inkscape:cx="492.94735"
     inkscape:cy="73.095711"
     inkscape:window-x="983"
     inkscape:window-y="0"
     inkscape:window-maximized="0"
     inkscape:current-layer="g10" /><g
     id="g10"
     inkscape:groupmode="layer"
     inkscape:label="Helveticons"
     transform="matrix(1.25,0,0,-1.25,0,640)"><g
       id="g12" /><g
       id="g14"><g
         id="g16"
         clip-path="url(#clipPath18)"><path
           d="m 117.0332,139.8516 c -22.008,0 -39.83,-17.854 -39.83,-39.836 0,-22.006 17.822,-39.828 39.83,-39.828 22.01,0 39.832,17.822 39.832,39.828 0,21.982 -17.822,39.836 -39.832,39.836 m 211.744,0 c -22.01,0 -39.832,-17.854 -39.832,-39.836 0,-22.006 17.822,-39.828 39.832,-39.828 22.01,0 39.832,17.822 39.832,39.828 0,21.982 -17.822,39.836 -39.832,39.836 m 84.862,283.457 -262.301,-262.333 22.923,-22.925 49.578,49.612 49.608,-49.612 22.923,22.944 -49.61,49.573 19.654,19.638 78.06,0 c 20.764,0 37.575,16.828 37.575,37.574 l 0,78.092 45.031,44.996 21.222,0 0,32.441 -34.663,0 z m -239.41,-193.103 1.243,0 118.313,118.313 -64.293,0 0,103.666 -55.263,0 c -61.315,0 -110.989,-49.675 -110.989,-110.976 0,-61.296 49.674,-111.003 110.989,-111.003"
           style="fill:#000000;fill-opacity:1;fill-rule:nonzero;stroke:none"
           id="path22" /></g></g></g></svg>