<?xml version="1.0" encoding="UTF-8" standalone="no"?>
<!-- Created with Inkscape (http://www.inkscape.org/) -->

<svg
   xmlns:dc="http://purl.org/dc/elements/1.1/"
   xmlns:cc="http://creativecommons.org/ns#"
   xmlns:rdf="http://www.w3.org/1999/02/22-rdf-syntax-ns#"
   xmlns:svg="http://www.w3.org/2000/svg"
   xmlns="http://www.w3.org/2000/svg"
   xmlns:sodipodi="http://sodipodi.sourceforge.net/DTD/sodipodi-0.dtd"
   xmlns:inkscape="http://www.inkscape.org/namespaces/inkscape"
   id="svg2"
   version="1.1"
   inkscape:version="0.48.2 r9819"
   width="640"
   height="640"
   xml:space="preserve"
   sodipodi:docname="Helveticons.pdf"><metadata
     id="metadata8"><rdf:RDF><cc:Work
         rdf:about=""><dc:format>image/svg+xml</dc:format><dc:type
           rdf:resource="http://purl.org/dc/dcmitype/StillImage" /><dc:title></dc:title></cc:Work></rdf:RDF></metadata><defs
     id="defs6"><clipPath
       clipPathUnits="userSpaceOnUse"
       id="clipPath18"><path
         d="M 0,0 512,0 512,512 0,512 0,0 z"
         id="path20" /></clipPath></defs><sodipodi:namedview
     pagecolor="#ffffff"
     bordercolor="#666666"
     borderopacity="1"
     objecttolerance="10"
     gridtolerance="10"
     guidetolerance="10"
     inkscape:pageopacity="0"
     inkscape:pageshadow="2"
     inkscape:window-width="640"
     inkscape:window-height="480"
     id="namedview4"
     showgrid="false"
     inkscape:zoom="0.36875"
     inkscape:cx="320"
     inkscape:cy="320"
     inkscape:window-x="0"
     inkscape:window-y="0"
     inkscape:window-maximized="0"
     inkscape:current-layer="g10" /><g
     id="g10"
     inkscape:groupmode="layer"
     inkscape:label="Helveticons"
     transform="matrix(1.25,0,0,-1.25,0,640)"><g
       id="g12" /><g
       id="g14"><g
         id="g16"
         clip-path="url(#clipPath18)"><path
           d="m 381.1289,196.543 c -3.631,-3.665 -8.455,-5.498 -13.229,-5.498 l -0.032,0 c -4.793,-0.016 -9.631,1.833 -13.277,5.498 -3.664,3.643 -5.51,8.481 -5.51,13.256 0,4.795 1.846,9.632 5.51,13.281 3.646,3.676 8.484,5.507 13.277,5.507 4.789,0 9.615,-1.848 13.261,-5.491 l -3.5,-3.533 3.5,3.517 c 3.662,-3.649 5.508,-8.486 5.508,-13.26 0,-4.775 -1.846,-9.618 -5.508,-13.277 m -64.408,64.45 c -3.647,-3.644 -8.468,-5.509 -13.242,-5.509 l -0.018,0 c -4.807,0 -9.631,1.85 -13.293,5.509 -3.662,3.664 -5.512,8.487 -5.512,13.282 0,4.789 1.85,9.625 5.512,13.275 3.662,3.645 8.486,5.508 13.293,5.493 4.773,0.015 9.613,-1.816 13.275,-5.493 3.664,-3.664 5.496,-8.486 5.481,-13.275 0.015,-4.795 -1.85,-9.602 -5.496,-13.282 m -32.162,-51.173 c 0,4.774 1.835,9.626 5.496,13.26 3.627,3.659 8.483,5.507 13.26,5.507 4.79,0 9.63,-1.848 13.293,-5.507 3.662,-3.649 5.493,-8.486 5.493,-13.281 0,-4.775 -1.831,-9.613 -5.493,-13.256 -3.663,-3.665 -8.471,-5.498 -13.245,-5.498 l -0.048,0 c -4.793,0 -9.633,1.833 -13.26,5.498 -3.661,3.643 -5.496,8.481 -5.496,13.277 m 32.162,-77.685 c -3.647,-3.613 -8.468,-5.476 -13.242,-5.476 l -0.018,0 c -4.807,0 -9.631,1.848 -13.293,5.509 -3.662,3.664 -5.512,8.469 -5.477,13.275 -0.035,4.774 1.815,9.633 5.477,13.261 3.662,3.649 8.486,5.508 13.293,5.508 4.773,0 9.613,-1.843 13.26,-5.508 3.646,-3.643 5.511,-8.487 5.496,-13.261 0.015,-4.806 -1.85,-9.611 -5.496,-13.308 m -64.421,64.408 c -3.646,-3.665 -8.487,-5.498 -13.245,-5.498 l -0.016,0 c -4.807,0 -9.63,1.833 -13.276,5.498 -3.681,3.643 -5.529,8.481 -5.495,13.277 -0.034,4.774 1.814,9.611 5.495,13.26 3.646,3.659 8.469,5.507 13.276,5.507 4.774,0 9.599,-1.831 13.261,-5.507 l -3.518,-3.517 3.533,3.517 c 3.632,-3.649 5.477,-8.486 5.477,-13.26 0,-4.796 -1.845,-9.618 -5.492,-13.277 m 179.174,25.259 -116.075,116.057 c -6.607,6.606 -17.301,6.606 -23.889,0.015 L 175.4189,221.802 c -6.591,-6.607 -6.591,-17.301 0,-23.908 L 291.5099,81.821 c 6.588,-6.606 17.282,-6.606 23.904,0 l 116.06,116.073 c 6.602,6.607 6.602,17.301 0,23.908 m -217.225,135.222 c 10.402,0 18.772,-8.402 18.788,-18.785 -0.016,-10.367 -8.386,-18.775 -18.788,-18.775 -10.367,0 -18.768,8.408 -18.768,18.775 0,10.383 8.401,18.785 18.768,18.785 m 0,49.61 c 10.367,0 18.788,-8.408 18.788,-18.775 0,-10.367 -8.421,-18.785 -18.788,-18.785 -10.367,0.017 -18.768,8.418 -18.768,18.785 0,10.367 8.401,18.775 18.768,18.775 m -82.976,-37.56 c -10.368,0.017 -18.789,8.418 -18.789,18.785 0,10.367 8.421,18.775 18.789,18.775 10.365,0 18.787,-8.408 18.787,-18.775 0,-10.381 -8.422,-18.768 -18.787,-18.785 m -18.789,-30.835 c 0,10.383 8.421,18.785 18.789,18.785 10.365,0 18.787,-8.402 18.787,-18.785 0,-10.367 -8.422,-18.775 -18.787,-18.775 -10.368,0 -18.789,8.408 -18.789,18.775 m 18.789,-68.38 c -10.368,0 -18.789,8.387 -18.789,18.769 0,10.382 8.421,18.77 18.789,18.77 10.365,0 18.787,-8.388 18.787,-18.77 0,-10.382 -8.422,-18.769 -18.787,-18.769 m 64.208,18.769 c 0,10.382 8.401,18.77 18.768,18.77 3.319,0 6.443,-0.866 9.143,-2.372 l 48.348,48.354 0,66.936 c 0,9.338 -7.552,16.89 -16.905,16.89 l -164.131,0 c -9.336,0 -16.906,-7.552 -16.906,-16.89 l 0,-164.161 c 0,-9.321 7.57,-16.889 16.906,-16.889 l 66.942,0 c 0.065,0.048 0.096,0.094 0.144,0.165 l 40.062,40.057 c -1.489,2.713 -2.371,5.818 -2.371,9.14"
           style="fill:#000000;fill-opacity:1;fill-rule:nonzero;stroke:none"
           id="path22" /></g></g></g></svg>