<?xml version="1.0" encoding="UTF-8" standalone="no"?>
<!-- Created with Inkscape (http://www.inkscape.org/) -->

<svg
   xmlns:dc="http://purl.org/dc/elements/1.1/"
   xmlns:cc="http://creativecommons.org/ns#"
   xmlns:rdf="http://www.w3.org/1999/02/22-rdf-syntax-ns#"
   xmlns:svg="http://www.w3.org/2000/svg"
   xmlns="http://www.w3.org/2000/svg"
   xmlns:sodipodi="http://sodipodi.sourceforge.net/DTD/sodipodi-0.dtd"
   xmlns:inkscape="http://www.inkscape.org/namespaces/inkscape"
   id="svg2"
   version="1.1"
   inkscape:version="0.48.2 r9819"
   width="640"
   height="640"
   xml:space="preserve"
   sodipodi:docname="vinsaeldalisti.svg"><metadata
     id="metadata8"><rdf:RDF><cc:Work
         rdf:about=""><dc:format>image/svg+xml</dc:format><dc:type
           rdf:resource="http://purl.org/dc/dcmitype/StillImage" /><dc:title></dc:title></cc:Work></rdf:RDF></metadata><defs
     id="defs6"><clipPath
       clipPathUnits="userSpaceOnUse"
       id="clipPath18"><path
         d="M 0,0 512,0 512,512 0,512 0,0 z"
         id="path20" /></clipPath></defs><sodipodi:namedview
     pagecolor="#ffffff"
     bordercolor="#666666"
     borderopacity="1"
     objecttolerance="10"
     gridtolerance="10"
     guidetolerance="10"
     inkscape:pageopacity="0"
     inkscape:pageshadow="2"
     inkscape:window-width="1028"
     inkscape:window-height="982"
     id="namedview4"
     showgrid="false"
     inkscape:zoom="1.0429825"
     inkscape:cx="321.2402"
     inkscape:cy="354.82603"
     inkscape:window-x="683"
     inkscape:window-y="106"
     inkscape:window-maximized="0"
     inkscape:current-layer="g10" /><g
     id="g10"
     inkscape:groupmode="layer"
     inkscape:label="Helveticons"
     transform="matrix(1.25,0,0,-1.25,0,640)"><rect
       style="fill:#999999;display:none"
       id="rect2988"
       width="414.96381"
       height="414.96381"
       x="48.32296"
       y="-458.577"
       transform="scale(1,-1)"
       inkscape:export-filename="/Users/bthj/Developer/Xcode/Mannanofn/Mannanofn/graphics/popularity_tabbar.png"
       inkscape:export-xdpi="5.21"
       inkscape:export-ydpi="5.21" /><g
       id="g12" /><g
       id="g14"><g
         id="g16"
         clip-path="url(#clipPath18)"><path
           d="m 347.7305,430.6367 33.915,-33.941 0.197,-0.199 -90.682,-90.714 -68.35,68.331 -174.004,-174.024 36.17,-36.142 137.834,137.845 68.35,-68.33 126.847,126.867 33.75,-33.748 11.018,115.043 -115.045,-10.988 z m 20.344,-359.922 51.111,0 0,255.933 -51.111,-51.148 0,-204.785 z m -70.34,134.463 0,-134.463 51.142,0 0,185.624 -40.092,-40.123 -11.05,-11.038 z m -70.313,-134.43 51.147,0 0,140.398 -51.147,51.145 0,-191.543 z m -140.616,60.103 0,-60.136 51.147,0 0,111.295 -35.32,-35.33 -15.827,-15.829 z m 70.312,-60.136 51.14,0 0,181.631 -51.14,-51.176 0,-130.455 z"
           style="fill:#000000;fill-opacity:1;fill-rule:nonzero;stroke:none"
           id="path22" /></g></g></g></svg>